<svg width="590" height="90" viewBox="0 0 590 90" fill="none" xmlns="http://www.w3.org/2000/svg">
<path d="M419 23C423.62 23 428.24 23 433 23C433 24.65 433 26.3 433 28C433.51 27.6391 434.021 27.2781 434.547 26.9062C441.009 22.7817 446.424 21.938 454 23C462.638 25.1562 467.45 30.8055 471.938 38.1875C474.004 45.6011 474.284 54.1016 471.027 61.2305C466.968 68.2216 461.745 72.4813 454 75C445.985 76.2709 442.61 74.8051 435 71C434.67 77.27 434.34 83.54 434 90C429.05 90 424.1 90 419 90C419 67.89 419 45.78 419 23ZM435 42C432.892 46.3062 432.743 49.1423 434.125 53.75C436.492 57.9054 436.492 57.9054 440 61C444.52 62.0936 446.844 62.378 451.25 60.9375C454.999 58.2964 457.477 55.6741 458.383 51.043C458.674 45.9654 457.365 42.9262 454 39C447.162 34.8372 440.176 35.9403 435 42Z" fill="currentColor"/>
<path d="M246 23C250.62 23 255.24 23 260 23C260 24.65 260 26.3 260 28C260.51 27.6391 261.021 27.2781 261.547 26.9062C268.009 22.7817 273.424 21.938 281 23C289.638 25.1562 294.45 30.8055 298.938 38.1875C301.004 45.6011 301.284 54.1016 298.027 61.2305C293.968 68.2216 288.745 72.4813 281 75C272.985 76.2709 269.61 74.8051 262 71C261.67 77.27 261.34 83.54 261 90C256.05 90 251.1 90 246 90C246 67.89 246 45.78 246 23ZM262 42C259.892 46.3062 259.743 49.1423 261.125 53.75C263.492 57.9054 263.492 57.9054 267 61C271.52 62.0936 273.844 62.378 278.25 60.9375C281.999 58.2964 284.477 55.6741 285.383 51.043C285.674 45.9654 284.365 42.9262 281 39C274.162 34.8372 267.176 35.9403 262 42Z" fill="currentColor"/>
<path fill-rule="evenodd" clip-rule="evenodd" d="M231 26C234.901 28.7477 237.081 31.254 239.25 35.5L240.766 38.3437C242 42 242 42 243 54H205C207.401 58.8338 207.401 58.8338 210.125 60.375C214.179 61.2562 217.951 60.8282 222 60L223 59C225.863 58.9267 228.701 58.9076 231.563 58.9375L234.006 58.9512C236.004 58.963 238.002 58.9809 240 59C237.279 66.2439 233.797 70.0431 226.867 73.2383C220.312 75.9125 212.974 76.1731 206.168 74.1641C198.866 70.8215 193.334 65.5786 190.063 58.1875C187.889 51.3163 187.995 43.5401 190.895 36.9101C194.82 30.1277 200.263 24.7913 207.852 22.4219C216.111 20.8001 223.817 21.5332 231 26ZM204 43L205 40C209.345 34.9313 214.777 35.1715 221 36C224.499 38.0238 224.499 38.0238 227 43H204Z" fill="currentColor"/>
<path d="M176 26C179.901 28.7477 182.081 31.254 184.25 35.5C184.75 36.4384 185.25 37.3769 185.766 38.3437C187 42 187 42 188 54C175.46 54 162.92 54 150 54C152.401 58.8338 152.401 58.8338 155.125 60.375C159.179 61.2562 162.951 60.8282 167 60C167.33 59.67 167.66 59.34 168 59C170.863 58.9267 173.701 58.9076 176.563 58.9375C177.369 58.942 178.175 58.9465 179.006 58.9512C181.004 58.963 183.002 58.9809 185 59C182.279 66.2439 178.797 70.0431 171.867 73.2383C165.312 75.9125 157.974 76.1731 151.168 74.1641C143.866 70.8215 138.334 65.5786 135.063 58.1875C132.889 51.3163 132.995 43.5401 135.895 36.9101C139.82 30.1277 145.263 24.7913 152.852 22.4219C161.111 20.8001 168.817 21.5332 176 26ZM150 40C149.67 40.99 149.34 41.98 149 43C156.59 43 164.18 43 172 43C169.499 38.0238 169.499 38.0238 166 36C159.777 35.1715 154.345 34.9313 150 40Z" fill="currentColor"/>
<path d="M94 7C98.62 7 103.24 7 108 7C108.33 17.89 108.66 28.78 109 40C110.939 37.195 112.878 34.39 114.875 31.5C120.729 23.7526 120.729 23.7526 125.43 22.1948C130.71 21.5132 135.78 22.0944 141 23C136.952 28.6884 132.551 33.7852 127.696 38.7861C124.245 42.3702 124.245 42.3702 123 47C124.105 49.502 124.105 49.502 125.859 52.0273C126.481 52.9845 127.102 53.9416 127.742 54.9277C128.405 55.921 129.067 56.9142 129.75 57.9375C131.037 59.9048 132.323 61.8722 133.609 63.8398C134.187 64.7099 134.764 65.5799 135.358 66.4763C136.965 68.9465 138.484 71.4732 140 74C133.73 74 127.46 74 121 74C115.06 63.605 115.06 63.605 109 53C108.67 59.93 108.34 66.86 108 74C103.38 74 98.76 74 94 74C94 51.89 94 29.78 94 7Z" fill="currentColor"/>
<path d="M516.879 25.5781C522.511 29.3537 526.844 34.532 529 41C530.176 57.245 530.176 57.245 525 64C522.563 66.75 522.563 66.75 520 69C519.196 69.7219 518.391 70.4438 517.563 71.1875C511.069 75.7808 503.667 75.8569 496 75C487.853 72.5739 482.1 67.4024 477.906 60.0938C474.978 53.4791 474.892 45.6758 477.063 38.8125C480.276 31.4651 485.856 26.3697 493 23C501.305 20.4299 509.391 21.3128 516.879 25.5781ZM493.188 40.5C490.43 43.983 490.708 47.7651 491 52C492.66 55.6519 494.481 58.0449 498 60C502.242 61.2007 504.946 61.3585 508.813 59.3125C511.899 57.0733 512.702 56.3758 514 53C514.579 48.7963 514.424 45.0839 512.875 41.125C510.506 38.4397 508.327 37.2902 505 36C500.091 36 496.969 37.3702 493.188 40.5Z" fill="currentColor"/>
<path d="M407.5 23.5625C411.576 25.9569 413.18 28.6777 415 33C415.094 35.7227 415.094 35.7227 415 38C412.897 38.108 410.792 38.1856 408.688 38.25C406.93 38.3196 406.93 38.3196 405.137 38.3906C402 38 402 38 400.082 35.9844C399.725 35.3295 399.368 34.6747 399 34C397.35 34.33 395.7 34.66 394 35C394.33 36.65 394.66 38.3 395 40C396.537 40.4544 396.537 40.4544 398.105 40.918C399.466 41.3403 400.827 41.7636 402.188 42.1875C402.861 42.3841 403.535 42.5807 404.229 42.7832C409.772 44.5409 413.278 47.1822 416.375 52.25C417.611 57.688 416.829 62.3731 414.312 67.3125C410.008 72.3155 405.741 74.674 399.266 75.2383C392.656 75.401 387.356 75.1683 382 71C378.399 66.845 377.435 63.4392 377 58C381.62 58 386.24 58 391 58C391.66 59.32 392.32 60.64 393 62C395.879 62.9358 397.255 63.3725 400 62C400 60.35 400 58.7 400 57C399.131 56.7577 398.262 56.5153 397.367 56.2656C383.131 52.1253 383.131 52.1253 379.125 46.25C377.167 40.5935 377.225 36.1534 379.625 30.75C384.967 21.0738 397.921 19.3413 407.5 23.5625Z" fill="currentColor"/>
<path d="M568 7C572.95 7 577.9 7 583 7C583 12.28 583 17.56 583 23C585.31 23 587.62 23 590 23C590 26.63 590 30.26 590 34C587.69 34 585.38 34 583 34C583 47.2 583 60.4 583 74C578.05 74 573.1 74 568 74C568 60.8 568 47.6 568 34C566.02 34 564.04 34 562 34C562 30.37 562 26.74 562 23C563.98 23 565.96 23 568 23C568 17.72 568 12.44 568 7Z" fill="currentColor"/>
<path d="M372 26C373.82 27.5859 373.82 27.5859 375 30C375.14 32.6566 375.097 34.9953 374.875 37.625C374.822 38.3854 374.769 39.1458 374.715 39.9292C373.852 51.3188 372.4 62.6664 371 74C369.35 73.67 367.7 73.34 366 73C365.484 71.6728 364.988 70.3377 364.5 69C364.222 68.2575 363.943 67.515 363.656 66.75C361.934 59.5334 363.395 52.2145 364.5 45C364.643 44.0345 364.786 43.069 364.934 42.0742C365.284 39.7153 365.639 37.3573 366 35C352.135 39.3177 340.287 47.0547 331.176 58.4648C330.698 59.0596 330.221 59.6543 329.729 60.2671C328.804 61.4398 327.899 62.6286 327.018 63.8345C325.738 65.4727 325.738 65.4727 323 68C319.168 68.3711 319.168 68.3711 316 68C316.313 59.286 316.831 50.6656 318.312 42.0625C318.418 41.3832 318.523 40.7038 318.632 40.0039C318.988 38.0977 318.988 38.0977 320 35C322.105 33.5586 322.105 33.5586 324 33C325.796 39.9758 326.121 45.8822 325 53C325.461 52.5875 325.923 52.175 326.398 51.75C360.132 21.8835 360.132 21.8835 372 26Z" fill="currentColor"/>
<path d="M559 22C559 26.62 559 31.24 559 36C555.7 36.66 552.4 37.32 549 38C548.147 42.2665 547.808 45.948 547.684 50.2695C547.663 50.9505 547.642 51.6315 547.621 52.3332C547.556 54.4929 547.496 56.6526 547.438 58.8125C547.394 60.2832 547.351 61.7539 547.307 63.2246C547.199 66.8163 547.1 70.4081 547 74C542.05 74 537.1 74 532 74C532 57.17 532 40.34 532 23C536.62 23 541.24 23 546 23C546.33 24.32 546.66 25.64 547 27C547.784 26.3606 548.567 25.7212 549.375 25.0625C553.311 21.9696 553.616 22 559 22Z" fill="currentColor"/>
<path d="M307 24C308.938 24.6875 308.938 24.6875 311 26C313.294 34.5386 311.944 43.6994 311.125 52.375C311.047 53.2433 310.968 54.1115 310.887 55.0061C310.056 63.2287 310.056 63.2287 308 67C305.875 67.8125 305.875 67.8125 304 68C301.875 62.8476 301.821 58.6881 302.188 53.25C302.236 52.4303 302.285 51.6106 302.336 50.7661C303.969 27.0312 303.969 27.0312 307 24Z" fill="currentColor"/>
<path d="M307 0C310.735 0.497984 312.812 0.874918 316 3C315.593 5.35964 315.102 6.85934 313.688 8.8125C312 10 312 10 310.062 10C307.199 8.61181 305.832 6.5515 304 4C304.99 2.68 305.98 1.36 307 0Z" fill="currentColor"/>
<path d="M65 18C70.5503 23.4399 70.5503 23.4399 72.25 27.0625C72.5645 27.7135 72.8791 28.3645 73.2031 29.0352C77.0209 38.4486 76.0382 50.5229 72.1562 59.7148C70.6494 62.6929 69.014 65.3387 67 68C63.1367 66.4153 60.7112 63.9404 57.7969 60.9922C57.3142 60.5067 56.8316 60.0212 56.3343 59.521C54.8014 57.977 53.2757 56.4262 51.75 54.875C50.7088 53.8238 49.6671 52.773 48.625 51.7227C46.078 49.1537 43.5373 46.5785 41 44C42.5847 40.1367 45.0596 37.7112 48.0078 34.7969C48.4933 34.3142 48.9788 33.8316 49.479 33.3343C51.023 31.8014 52.5738 30.2757 54.125 28.75C55.1762 27.7088 56.227 26.6671 57.2773 25.625C59.8463 23.078 62.4215 20.5373 65 18Z" fill="#D80F2F"/>
<path d="M35 49C40.5467 53.7543 45.7684 58.5538 50.9375 63.6875C51.7167 64.4461 52.496 65.2047 53.2988 65.9863C54.0342 66.7166 54.7696 67.4468 55.5273 68.1992C56.195 68.8575 56.8627 69.5158 57.5505 70.1941C59 72 59 72 59 75C57.2639 75.8619 55.5099 76.6877 53.75 77.5C52.7755 77.9641 51.8009 78.4281 50.7969 78.9062C47 80 47 80 35 80C35 69.77 35 59.54 35 49Z" fill="#01A039"/>
<path d="M35 6C46.2774 6 46.2774 6 50.9375 7.875C51.8334 8.22305 52.7293 8.57109 53.6523 8.92969C56 10 56 10 59 12C57.4381 15.7521 55.1097 18.1344 52.2461 20.9844C51.5547 21.6751 51.5547 21.6751 50.8494 22.3797C49.8792 23.3468 48.9067 24.3115 47.9319 25.2739C46.4338 26.7537 44.9439 28.2414 43.4551 29.7305C36.1402 37 36.1402 37 35 37C35 26.77 35 16.54 35 6Z" fill="#FAC500"/>
<path d="M25 8V78C14.2252 74.4084 8.01526 67.9697 2.96875 57.9531C-0.541116 49.3085 -0.287665 38.8249 2.625 30.0625C5.89297 22.334 15.1786 8 25 8Z" fill="#0387C6"/>
</svg>
