<svg viewBox="0 0 205 18">
  <path fill="currentColor" d="M0 17.4V.5h3.2v14.4h13.7v2.5H0Zm18.9 0V3.9h2.5v13.5h-2.5Zm12.8 0L22.8 3.9h2.8l7.1 10.8 6.9-10.8h2.8l-8.8 13.5h-1.9Zm12.1 0V3.9h2.5v13.5h-2.5Zm21.7 0L51.1 6.9v10.5h-2.2V3.9h2.2l13.4 10v-10h2.2v13.5h-1.2Zm8.4 0c-3.2 0-4.8-1-4.8-3V6.8c0-1.9 1.6-2.9 4.8-2.9h10.5v2H73.9c-1.5 0-2.3.3-2.3.9v7.6c0 .7.8 1 2.3 1h5.9c1.5 0 2.3-.3 2.3-.9V10h2.5v4.5c0 1.9-1.6 2.9-4.8 2.9h-5.9Zm18.6 0a9 9 0 0 1-2.5-.3 5 5 0 0 1-1.6-.9 3 3 0 0 1-.9-1.3c-.2-.5-.3-1-.3-1.6V4.6a3.8 3.8 0 0 1 1.2-3A6 6 0 0 1 90 .8a9 9 0 0 1 2.5-.3h11.1c.8 0 1.6 0 2.4.3.6.2 1.2.4 1.7.8a3.8 3.8 0 0 1 1.2 3v8.7c0 .5 0 1-.3 1.6a3 3 0 0 1-.9 1.3c-.5.4-1 .7-1.7.9l-2.4.3H92.5Zm13.2-12.9c0-1-.7-1.5-2.1-1.5H92.5c-1.4 0-2.1.5-2.1 1.5v8.8c0 1 .7 1.6 2.1 1.6h11.1c1.4 0 2.1-.6 2.1-1.6V4.5Zm5.9 12.9V3.9h10.9l1.9.2c.5 0 1 .3 1.3.6.3.2.6.5.7.9l.3 1.2V8c0 .5-.2 1-.5 1.5-.3.4-.7.7-1.1.8.5.1.9.4 1.2.7a1.7 1.7 0 0 1 .5 1.5v1.9c0 .4 0 .8-.2 1.1-.1.4-.4.8-.7 1-.4.3-.8.5-1.3.6-.6.2-1.3.3-2 .3h-11Zm12.5-10.5a1.1 1.1 0 0 0-.3-.8l-1.3-.2h-8.4v3.5h8.4c.5 0 1 0 1.3-.3.2-.1.3-.4.3-.8V6.9Zm.2 5.6a1.1 1.1 0 0 0-.5-.9l-1.2-.2h-8.5v4h8.5c.4 0 .8 0 1.2-.3a1.3 1.3 0 0 0 .5-1.1v-1.5Zm3.6 4.9v-2h3.7c.4 0 .8 0 1.2-.3a.5.5 0 0 0 .3-.2.5.5 0 0 0 .1-.4V3.9h2.6v10.6c0 .4 0 .8-.3 1.1-.1.4-.4.7-.7.9-.4.3-.8.5-1.3.6-.6.2-1.3.3-1.9.3h-3.7Zm10.3 0V3.9H152v2h-11.3v3.3h10.8v2h-10.8v4.2H152v2h-13.8Zm20.1 0c-.6 0-1.3 0-1.9-.3-.5 0-1-.3-1.3-.7a2 2 0 0 1-.8-1l-.2-1.3v-7c0-.4 0-.9.2-1.3l.8-1c.4-.3.8-.6 1.3-.7l1.9-.2h10.9v2h-10.9c-1.1 0-1.7.4-1.7 1.2v7c0 .8.6 1.3 1.7 1.3h10.9v2h-10.9Zm19.2 0V5.9h-7v-2h16.4v2h-6.8v11.5h-2.6Zm10.8 0v-2H200c1.1 0 1.7-.5 1.7-1.3v-1.7c0-.8-.6-1.2-1.7-1.2h-7.9c-.7 0-1.4 0-2-.3a2 2 0 0 1-1.3-.6c-.3-.3-.6-.7-.7-1.1-.2-.4-.3-.8-.3-1.3v-.8c0-.4.1-.9.3-1.3.1-.4.4-.7.7-1a4 4 0 0 1 1.3-.7l2-.2h11.4v2h-11.4c-1.2 0-1.7.4-1.7 1.2v.8c0 .9.5 1.3 1.7 1.3h7.9l1.9.2c.5.1 1 .4 1.3.7l.8 1 .2 1.3v1.7c0 .4 0 .9-.2 1.3a2 2 0 0 1-.8 1 2 2 0 0 1-1.3.7c-.6.2-1.3.3-1.9.3h-11.7Z"/>
  <path fill="#e96657" d="M127.9 15.4v2h3.7c.6 0 1.3 0 1.9-.3.5-.1 1-.3 1.3-.6.3-.2.6-.5.7-.9.2-.3.3-.7.3-1.1V3.9h-2.6v10.8a.5.5 0 0 1-.4.4l-1.2.3h-3.7Zm10.3-11.5v13.5H152v-2h-11.3v-4.2h10.8v-2h-10.8V5.9H152v-2h-13.8Zm18.2 13.2c.6.2 1.3.3 1.9.3h10.9v-2h-10.9c-1.1 0-1.7-.5-1.7-1.3v-7c0-.8.6-1.2 1.7-1.2h10.9v-2h-10.9l-1.9.2c-.5.1-1 .4-1.3.7l-.8 1-.2 1.3v7c0 .4 0 .9.2 1.3.1.4.4.8.8 1 .3.4.8.6 1.3.7Zm21.1-11.2v11.5h2.6V5.9h6.8v-2h-16.4v2h7Zm10.8 9.5v2H200c.6 0 1.3 0 1.9-.3.5 0 1-.3 1.3-.7.4-.2.7-.6.8-1l.2-1.3v-1.7c0-.4 0-.9-.2-1.3l-.8-1c-.4-.3-.8-.6-1.3-.7l-1.9-.2h-7.9c-1.2 0-1.7-.4-1.7-1.3v-.8c0-.8.5-1.2 1.7-1.2h11.4v-2h-11.4l-2 .2a4 4 0 0 0-1.3.7c-.3.3-.6.6-.7 1a3 3 0 0 0-.3 1.3v.8c0 .5 0 .9.3 1.3.1.4.4.8.7 1.1.4.3.8.5 1.3.6.6.2 1.3.3 2 .3h7.9c1.1 0 1.7.4 1.7 1.2v1.7c0 .8-.6 1.3-1.7 1.3h-11.7Z"/>
  <path fill="#e96657" fill-rule="evenodd" d="M92.5 17.4a9 9 0 0 1-2.5-.3 5 5 0 0 1-1.6-.9 3 3 0 0 1-.9-1.3c-.2-.5-.3-1-.3-1.6V4.6a3.8 3.8 0 0 1 1.2-3A6 6 0 0 1 90 .8a9 9 0 0 1 2.5-.3h11.1c.8 0 1.6 0 2.4.3.6.2 1.2.4 1.7.8a3.8 3.8 0 0 1 1.2 3v8.7c0 .5 0 1-.3 1.6a3 3 0 0 1-.9 1.3c-.5.4-1 .7-1.7.9l-2.4.3H92.5ZM103.6 3c1.4 0 2.1.5 2.1 1.5v8.8c0 1-.7 1.6-2.1 1.6H92.5c-1.4 0-2.1-.6-2.1-1.6V4.5c0-1 .7-1.5 2.1-1.5h11.1Zm8 .9v13.5h11c.7 0 1.4 0 2-.3.5-.1 1-.3 1.3-.6.3-.2.6-.6.7-1 .2-.3.2-.7.2-1.1v-1.9a1.7 1.7 0 0 0-.5-1.5c-.3-.3-.7-.6-1.2-.7.4-.1.8-.4 1.1-.8.3-.4.5-1 .5-1.5V6.8l-.3-1.2c-.1-.4-.4-.7-.7-.9-.4-.3-.8-.5-1.3-.6l-1.9-.2h-10.9Zm12.5 3a1.1 1.1 0 0 0-.3-.8l-1.3-.2h-8.4v3.5h8.4c.5 0 1 0 1.3-.3.2-.1.3-.4.3-.8V6.9Zm0 5 .2.6V14a1.3 1.3 0 0 1-.5 1.1l-1.2.3h-8.5v-4h8.5l1.2.2.4.4Z" clip-rule="evenodd"/>
</svg>