<svg xmlns="http://www.w3.org/2000/svg" fill="none" viewBox="0 0 50 50">
  <path fill="currentColor" d="M24.5 41.9H10.9c-2.4 0-3.3-2.1-3.3-3.9V3.8C7.6 1.9 6 .9 4.1.9S.5 1.9.5 3.8v35.4a10 10 0 0 0 10 10h8.7c4.4 0 5.8-3.5 6.5-4.8.7-1.3.1-2.5-1.2-2.5Z"/>
  <path fill="#E96657" d="M32.6 49.2h7a10 10 0 0 0 10-10V10.9a10 10 0 0 0-10-10H22.5a10 10 0 0 0-10 10v26.3c0 2 1.5 3 3.5 3s3.5-1 3.5-3V11.5a3.3 3.3 0 0 1 3.3-3.3h16.5a3.3 3.3 0 0 1 3.3 3.3v27.1a3.3 3.3 0 0 1-3.3 3.3h-5.4c-4.4 0-6 3.5-6.7 4.8-.7 1.3 0 2.5 1.3 2.5h4.1Z"/>
</svg>