<svg  viewBox="0 0 597 155">
  <path fill="#DA6A24" d="M0 77.4a38 38 0 0 1 12-28.3 39.7 39.7 0 0 1 28.9-11.6 39.8 39.8 0 0 1 28.5 11.7c3.9 4 6.9 8.4 9 13.1a38 38 0 0 1-.2 30.5c-2.1 5-5 9.3-8.9 13a39.2 39.2 0 0 1-28.4 11.5c-11.4 0-21-3.9-29-11.6A38 38 0 0 1 0 77.4Zm16 0c0 7.2 2.4 13.3 7.2 18.3 4.8 5 10.6 7.6 17.4 7.6a23 23 0 0 0 17.3-7.6c4.9-5 7.3-11.2 7.3-18.2S62.8 64.4 58 59.3c-4.8-5-10.6-7.5-17.4-7.5A25.3 25.3 0 0 0 16 77.5Zm104.6 39.9-36.7-78h16.8L124.3 90l22-50.8H163l-35.2 78h-7.2Zm117.7-9.5a57.5 57.5 0 0 1-32.4 9.8c-12-.1-21.7-3.8-29-11.3a41.4 41.4 0 0 1-10.7-30c0-11.4 3.5-20.7 10.4-27.9a36 36 0 0 1 27-10.6c11.1 0 19.8 3.6 26.3 10.8 6.5 7.3 9.7 17 9.7 29.4v2.2h-57.3c.5 7.3 2.8 13 7.1 17 4.4 4 10.1 6.1 17.4 6.1 4.8 0 9.9-.9 15.2-2.7a74.2 74.2 0 0 0 16.3-8.3v15.5Zm-56-38.4 40.5-.1c-.5-5.5-2.5-10-6-13.3-3.6-3.4-8-5-13.3-5-5.8 0-10.5 1.5-14.1 4.6a23 23 0 0 0-7 13.8Zm71.8 46.4V39.2h15.2V56a58.4 58.4 0 0 1 11.5-14 18 18 0 0 1 19.5-2.1c2.9 1.2 6 3 9.1 5.6L301.1 59a27.8 27.8 0 0 0-7.1-4.7 18 18 0 0 0-7.1-1.5c-4.2 0-7.8 1.8-11 5.2a31.3 31.3 0 0 0-6.5 14.5v43.3H254Z"/>
  <path fill="currentColor" d="M317.9 112.3V0h15.5v43.5c2.8-2 5.9-3.6 9.2-4.5 3.3-1 7-1.5 11-1.5 11 0 20 3.7 26.7 11a41 41 0 0 1 10.1 29c0 12.7-3.8 22.6-11.3 29.6a45.6 45.6 0 0 1-32 10.4 92.4 92.4 0 0 1-29.2-5.2Zm15.5-11.8a54.2 54.2 0 0 0 15.4 3 25 25 0 0 0 18.6-6.7c4.5-4.5 6.7-10.9 6.7-19.2a27 27 0 0 0-6.4-19c-4.3-4.7-10.1-7-17.4-7a27.7 27.7 0 0 0-16.9 5.7v43.2Zm72.4 15.3V0h15.3v115.8h-15.3Zm30.3-38.4A38 38 0 0 1 448 49.2a39.7 39.7 0 0 1 28.9-11.7 39.8 39.8 0 0 1 28.5 11.7c3.9 4 6.9 8.4 9 13.1a37.7 37.7 0 0 1-.2 30.5 39 39 0 0 1-37.3 24.5c-11.4 0-21-3.9-28.9-11.6a38 38 0 0 1-11.8-28.3Zm16 0c0 7.2 2.3 13.3 7.1 18.3s10.6 7.6 17.4 7.6c6.8 0 12.5-2.5 17.4-7.6 4.8-5 7.2-11.1 7.2-18.2 0-7-2.4-13.1-7.2-18.2-4.8-5-10.6-7.5-17.4-7.5A25.3 25.3 0 0 0 452 77.5Zm93.5 14a24.6 24.6 0 0 1-13.1-8.7c-3-4.1-4.5-9.2-4.5-15.2 0-9.3 3.2-16.3 9.6-21a47.5 47.5 0 0 1 28.5-7.2h30.4v12.5h-13a22.4 22.4 0 0 1 6.2 15.6c0 6.4-2 11.8-5.9 16.4a25.8 25.8 0 0 1-15.7 8.5l-5.8 1c-8.2 1.2-12.3 3.3-12.3 6.2 0 3 5.9 5.5 17.6 7.8l6.8 1.3c7.4 1.6 13 4.2 16.8 7.9 3.8 3.6 5.7 8.3 5.7 14a20 20 0 0 1-9.8 17.8 53.3 53.3 0 0 1-28.3 6.2 53 53 0 0 1-27.7-6c-6.3-4-9.5-9.7-9.5-17.2 0-5.4 1.8-9.8 5.6-13.3 3.7-3.5 9.2-6 16.4-7.3-2.9-1.3-5-2.7-6.4-4.2a7.3 7.3 0 0 1-2-5c0-2 .8-3.8 2.4-5.4a26 26 0 0 1 8-4.6Zm-9.1 38.7c0 3.8 1.8 6.6 5.6 8.5 3.7 2 9.3 2.9 16.6 2.9 7 0 12.6-1 16.7-2.8 4-1.9 6-4.5 6-7.7 0-3.6-2.3-6.3-6.8-8.2a58.3 58.3 0 0 0-20.5-2.7 25 25 0 0 0-12.7 2.9c-3.3 1.9-5 4.3-5 7.2ZM559 52.2c-4.7 0-8.6 1.4-11.5 4.1-3 2.7-4.5 6.2-4.5 10.5 0 4.5 1.5 8 4.3 10.5a17 17 0 0 0 11.6 3.7c5 0 9-1.2 12-3.8 3-2.5 4.4-6 4.4-10.4 0-4.3-1.6-7.7-4.6-10.5a17 17 0 0 0-11.8-4v-.1Z"/>
</svg>
