<svg  viewBox="0 0 197 64">
  <path fill="currentColor" fill-rule="evenodd" d="M41.4 48.98V28.73c0-2.41.78-4.37 2.42-5.94a8.23 8.23 0 0 1 6.04-2.41c4.4 0 7.8 3.26 7.8 7.96v20.64h6.89V27.04c0-3.73-1.18-6.86-3.48-9.34-2.3-2.48-5.3-3.72-9.18-3.72-4.79 0-8.52 2.35-10.1 5.42h-.46V0h-6.82v48.98h6.89ZM0 40.46c1.24 5.87 6.12 9.4 14.05 9.4 8.8 0 14.46-4.62 14.46-11.4 0-8.74-7.1-9.93-13.07-10.93-4.33-.73-8.07-1.36-8.07-4.7 0-2.72 2.52-4.55 6.54-4.55 4.13 0 6.51 1.87 7.02 4.88l6.28-1.7c-1.3-5.53-6.34-8.88-13.02-8.88-4.03 0-7.3.95-9.83 2.92a9.12 9.12 0 0 0-3.68 7.47c0 8.18 6.61 9.39 12.4 10.44 4.49.82 8.47 1.55 8.47 5.38 0 3.2-2.66 5.23-7.3 5.23-4.6 0-7.18-1.75-7.74-5.32L0 40.46Zm75.33-31c-2.69 0-4.52-1.75-4.52-4.37 0-2.54 1.9-4.3 4.52-4.3 2.69 0 4.6 1.76 4.6 4.3 0 2.62-1.91 4.38-4.6 4.38Zm3.41 5.36v34.16h-6.89V14.82h6.9ZM92.9 64V44.02h.4c1.1 1.82 4.71 5.8 11.27 5.8 4.79 0 8.66-1.69 11.68-5.02 3.08-3.4 4.59-7.7 4.59-13 0-5.29-1.58-9.6-4.66-12.86-3.08-3.33-7.08-4.96-12-4.96-4.07 0-6.89 1.56-8.72 3.13a10.27 10.27 0 0 0-2.3 2.61h-.46v-4.9h-6.69V64h6.89Zm-.2-32.13c0-3.33.92-6.14 2.82-8.36 1.9-2.22 4.46-3.33 7.67-3.33 6.37 0 10.63 4.57 10.63 11.69 0 3.46-.98 6.27-2.95 8.49a9.66 9.66 0 0 1-7.54 3.26c-3.09 0-5.64-1.04-7.68-3.2-1.96-2.15-2.95-4.96-2.95-8.55Zm36.55 17.11V20.44h-6.17v-5.62h6.23v-3.4c0-7.04 4.92-11.42 12.2-11.42h3.87v5.81h-3.48c-3.93 0-5.83 2.35-5.83 5.81v3.2h21.02v34.16h-6.9V20.44h-14.06v28.54h-6.88Zm19.9-43.89c0 2.62 1.84 4.38 4.53 4.38 2.68 0 4.59-1.76 4.59-4.38 0-2.54-1.9-4.3-4.6-4.3-2.62 0-4.52 1.76-4.52 4.3Z" clip-rule="evenodd"/>
  <path fill="#5185FF" d="M168.85 48.98H161l9.97-17.78-9.77-16.35h7.65l9.38 16.02c.12.2.13.46.01.66l-9.39 17.45Z"/>
  <path fill="currentColor" d="M189.14 48.98H197l-9.98-17.78 9.78-16.35h-7.66l-9.38 16.02a.67.67 0 0 0 0 .66l9.38 17.45Z"/>
</svg>
